<?xml version="1.0"?>
<svg xmlns="http://www.w3.org/2000/svg" width="50" height="50" viewBox="0 0 50 50">
    <path style="text-indent:0;text-align:start;line-height:normal;text-transform:none;block-progression:tb;-inkscape-font-specification:Bitstream Vera Sans" d="M 13.9375 3.6875 C 9.319039 3.6875 5.53125 7.443008 5.53125 12.0625 C 5.53125 14.456066 6.545832 16.630829 8.15625 18.15625 L 8.1875 18.1875 L 8.21875 18.21875 C 8.21875 18.21875 10.409327 19.983969 12.6875 21.84375 C 13.826586 22.773641 14.980486 23.73352 15.90625 24.5 C 16.832014 25.26648 17.564017 25.880024 17.65625 25.96875 C 18.106377 26.40173 18.155954 26.647862 18.28125 27.21875 C 18.406546 27.789638 18.627183 28.707091 19.4375 29.46875 C 19.536278 29.561597 19.88929 29.869347 20.03125 30 L 8 30 C 3.4569027 30 0 33.381815 0 37.9375 C 0 40.199812 0.76166989 42.303857 2.21875 43.84375 C 3.6758301 45.383643 5.8115919 46.3125 8.375 46.3125 C 12.993461 46.3125 16.28125 42.478868 16.28125 37.9375 C 16.28125 37.462794 16.405079 37.332954 16.5 37.25 C 16.59492 37.16705 16.775788 37.0625 17.125 37.0625 L 29.53125 37.0625 A 1.0001 1.0001 0 0 0 29.625 37.0625 L 40.15625 37.0625 L 40.15625 37.03125 C 40.25227 37.03675 42.459792 37.16741 44.8125 36.5625 C 46.014427 36.25347 47.275076 35.762871 48.28125 34.875 C 49.287424 33.987129 50 32.651284 50 31 L 50 30.125 L 49.125 30 L 39.4375 28.8125 L 49.46875 21.65625 L 50.6875 20.78125 L 49.40625 20 C 47.44918 18.787835 45.391965 18.553083 43.8125 18.625 C 42.233035 18.69692 41.125 19.0625 41.125 19.0625 L 41.0625 19.09375 L 41 19.125 L 28.03125 25.625 C 25.059777 23.419623 20.539175 20.057517 19.8125 19.53125 C 19.498483 19.303573 19.470504 19.165197 19.46875 18.9375 C 19.466996 18.709803 19.570057 18.356311 19.84375 18 L 19.8125 18 C 21.334658 16.484013 22.3125 14.379764 22.3125 12.0625 C 22.3125 7.444039 18.556992 3.6875 13.9375 3.6875 z M 13.9375 5.6875 C 17.476008 5.6875 20.3125 8.524961 20.3125 12.0625 C 20.3125 13.86671 19.573953 15.493682 18.375 16.65625 L 18.3125 16.71875 L 18.28125 16.78125 C 17.802943 17.403939 17.462504 18.126947 17.46875 18.9375 C 17.47495 19.748053 17.908267 20.582677 18.65625 21.125 C 19.288643 21.582988 24.152829 25.218647 27.125 27.4375 A 1.0001 1.0001 0 0 0 27.5 27.71875 C 28.271573 28.294802 29.9375 29.53125 29.9375 29.53125 L 30.15625 29.6875 L 30.40625 29.71875 L 47.8125 31.875 C 47.651488 32.469552 47.414739 32.981449 46.96875 33.375 C 46.314049 33.952723 45.325073 34.364655 44.3125 34.625 C 42.287354 35.14569 40.1875 35.0625 40.1875 35.0625 L 40.15625 35.0625 L 29.59375 35.0625 A 1.0001 1.0001 0 0 0 29.53125 35.0625 C 29.022167 35.0625 28.019339 34.607857 27.875 34.46875 C 27.558014 34.16393 26.175454 32.910106 24.625 31.5 C 23.074546 30.089894 21.41696 28.568163 20.8125 28 C 20.373817 27.587659 20.344204 27.384112 20.21875 26.8125 C 20.093296 26.240888 19.872373 25.31027 19.0625 24.53125 C 18.760233 24.240476 18.119767 23.709364 17.1875 22.9375 C 16.255233 22.165636 15.078539 21.212734 13.9375 20.28125 C 11.690288 18.446744 9.5964444 16.771545 9.53125 16.71875 C 9.5206507 16.70871 9.5105306 16.697609 9.5 16.6875 C 9.4997462 16.687294 9.46875 16.65625 9.46875 16.65625 C 8.2741025 15.493983 7.53125 13.861428 7.53125 12.0625 C 7.53125 8.523992 10.399961 5.6875 13.9375 5.6875 z M 14 7.5 C 11.526563 7.5 9.5 9.5265631 9.5 12 C 9.5 14.473437 11.526563 16.5 14 16.5 C 16.473437 16.5 18.5 14.473437 18.5 12 C 18.5 9.5265631 16.473437 7.5 14 7.5 z M 14 9.5 C 15.392557 9.5 16.5 10.607443 16.5 12 C 16.5 13.392557 15.392557 14.5 14 14.5 C 12.607443 14.5 11.5 13.392557 11.5 12 C 11.5 10.607443 12.607443 9.5 14 9.5 z M 44.09375 20.6875 C 44.907988 20.685162 45.875372 20.782573 46.84375 21.09375 L 36.46875 28.4375 L 30.90625 27.75 C 30.868794 27.722132 30.014752 27.087684 29.8125 26.9375 L 41.78125 20.96875 C 41.78125 20.96875 42.736687 20.691397 44.09375 20.6875 z M 30.5 31 C 29.671573 31 29 31.671573 29 32.5 C 29 33.328427 29.671573 34 30.5 34 C 31.328427 34 32 33.328427 32 32.5 C 32 31.671573 31.328427 31 30.5 31 z M 22.03125 31.96875 A 1.0001 1.0001 0 0 0 22.15625 31.96875 C 22.594883 32.366314 22.832185 32.560335 23.28125 32.96875 C 24.383374 33.971109 24.972642 34.522553 25.5625 35.0625 L 17.125 35.0625 C 16.455212 35.0625 15.760829 35.248954 15.1875 35.75 C 14.614171 36.251046 14.28125 37.056206 14.28125 37.9375 C 14.28125 41.554132 11.912539 44.3125 8.375 44.3125 C 6.2854081 44.3125 4.7596699 43.601857 3.6875 42.46875 C 2.6153301 41.335643 2 39.753188 2 37.9375 C 2 34.337185 4.3870973 32 8 32 L 21.84375 32 A 1.0001 1.0001 0 0 0 22.03125 31.96875 z M 8 33.5 C 5.5265634 33.5 3.5 35.526563 3.5 38 C 3.5 40.473437 5.5265634 42.5 8 42.5 C 10.473437 42.5 12.5 40.473437 12.5 38 C 12.5 35.526563 10.473437 33.5 8 33.5 z M 8 35.5 C 9.3925566 35.5 10.5 36.607443 10.5 38 C 10.5 39.392557 9.3925566 40.5 8 40.5 C 6.6074434 40.5 5.5 39.392557 5.5 38 C 5.5 36.607443 6.6074434 35.5 8 35.5 z" overflow="visible" enable-background="accumulate" font-family="Bitstream Vera Sans"/>
</svg>
